# xmcd CD database file
#
# Track frame offsets:
#	150
#	18017
#	33742
#	48305
#	67490
#	80355
#	98285
#	111242
#	125482
#	151397
#	167587
#	183100
#	202630
#
# Disc length: 2844 seconds
#
# Revision: 0
# Processed by: cddbd v1.5.1PL2 Copyright (c) Steve Scherf et al.
# Submitted via: CDex 1.50
#
DISCID=9b0b1a0d
DTITLE=Goose Town - JazzBand - Goose Town  JazzBand - Vol. 3
DYEAR=1900
DGENRE=Jazz
TTITLE0=Royal Garden Blues
TTITLE1=When I Grow Too Old To Dream
TTITLE2=Maple Leaf Rag
TTITLE3=Sweet Lorraine
TTITLE4=Them There Eyes
TTITLE5=Glemmer Du
TTITLE6=Petit Fleur
TTITLE7=The World Is Waiting For The Sunrise
TTITLE8=Tin Roof Blues
TTITLE9=On The Sunny Side Of The Street
TTITLE10=Alle Gar Rundt Og Forelsker Sig
TTITLE11=Alexanders Ragtime Band
TTITLE12=Now Is The Hour - Sig Du Er Min
EXTD=
EXTT0=
EXTT1=
EXTT2=
EXTT3=
EXTT4=
EXTT5=
EXTT6=
EXTT7=
EXTT8=
EXTT9=
EXTT10=
EXTT11=
EXTT12=
PLAYORDER=
